<svg width="30" height="30" viewBox="0 0 30 30" fill="none" xmlns="http://www.w3.org/2000/svg">
<path d="M3.8816 0.601624C3.45667 0.205665 2.89463 -0.00989708 2.3139 0.000349235C1.73317 0.0105955 1.17909 0.245851 0.768384 0.656553C0.357681 1.06726 0.122426 1.62134 0.11218 2.20207C0.101933 2.7828 0.317496 3.34484 0.713454 3.76977L11.8319 14.8882L0.713454 26.0066C0.493218 26.2118 0.316572 26.4593 0.194055 26.7342C0.0715374 27.0092 0.00565935 27.306 0.000348862 27.607C-0.00496162 27.908 0.0504044 28.207 0.163146 28.4861C0.275887 28.7652 0.443693 29.0188 0.656553 29.2316C0.869412 29.4445 1.12297 29.6123 1.40209 29.725C1.68121 29.8378 1.98017 29.8931 2.28116 29.8878C2.58214 29.8825 2.87897 29.8166 3.15394 29.6941C3.42891 29.5716 3.67638 29.395 3.8816 29.1747L15 18.0563L26.1184 29.1747C26.3236 29.395 26.5711 29.5716 26.8461 29.6941C27.121 29.8166 27.4179 29.8825 27.7188 29.8878C28.0198 29.8931 28.3188 29.8378 28.5979 29.725C28.877 29.6123 29.1306 29.4445 29.3434 29.2316C29.5563 29.0188 29.7241 28.7652 29.8369 28.4861C29.9496 28.207 30.005 27.908 29.9997 27.607C29.9943 27.306 29.9285 27.0092 29.8059 26.7342C29.6834 26.4593 29.5068 26.2118 29.2865 26.0066L18.1681 14.8882L29.2865 3.76977C29.6825 3.34484 29.8981 2.7828 29.8878 2.20207C29.8776 1.62134 29.6423 1.06726 29.2316 0.656553C28.8209 0.245851 28.2668 0.0105955 27.6861 0.000349235C27.1054 -0.00989708 26.5433 0.205665 26.1184 0.601624L15 11.72L3.8816 0.601624Z" fill="#EAF6FE"/>
</svg>
