<svg width="31" height="30" viewBox="0 0 31 30" fill="none" xmlns="http://www.w3.org/2000/svg">
<path d="M4.86289 0.6203C4.43796 0.224342 3.87592 0.00877968 3.29519 0.019026C2.71446 0.0292723 2.16038 0.264527 1.74968 0.67523C1.33897 1.08593 1.10372 1.64001 1.09347 2.22075C1.08323 2.80148 1.29879 3.36351 1.69475 3.78845L12.8131 14.9068L1.69475 26.0252C1.47451 26.2305 1.29787 26.4779 1.17535 26.7529C1.05283 27.0279 0.986952 27.3247 0.981642 27.6257C0.976331 27.9267 1.0317 28.2256 1.14444 28.5048C1.25718 28.7839 1.42499 29.0374 1.63785 29.2503C1.85071 29.4632 2.10426 29.631 2.38338 29.7437C2.6625 29.8564 2.96147 29.9118 3.26245 29.9065C3.56343 29.9012 3.86026 29.8353 4.13523 29.7128C4.4102 29.5903 4.65768 29.4136 4.86289 29.1934L15.9813 18.075L27.0997 29.1934C27.3049 29.4136 27.5524 29.5903 27.8274 29.7128C28.1023 29.8353 28.3992 29.9012 28.7001 29.9065C29.0011 29.9118 29.3001 29.8564 29.5792 29.7437C29.8583 29.631 30.1119 29.4632 30.3247 29.2503C30.5376 29.0374 30.7054 28.7839 30.8181 28.5048C30.9309 28.2256 30.9863 27.9267 30.9809 27.6257C30.9756 27.3247 30.9098 27.0279 30.7872 26.7529C30.6647 26.4779 30.4881 26.2305 30.2678 26.0252L19.1494 14.9068L30.2678 3.78845C30.6638 3.36351 30.8794 2.80148 30.8691 2.22075C30.8589 1.64001 30.6236 1.08593 30.2129 0.67523C29.8022 0.264527 29.2481 0.0292723 28.6674 0.019026C28.0867 0.00877968 27.5246 0.224342 27.0997 0.6203L15.9813 11.7387L4.86289 0.6203Z" fill="#05273C"/>
</svg>
