<svg width="80" height="80" viewBox="0 0 80 80" fill="none" xmlns="http://www.w3.org/2000/svg">
<circle cx="40" cy="40" r="40" fill="#3CA9EB"/>
<path d="M25.3624 39.9232C21.8858 37.6313 20.0995 34.8438 20.0033 31.5607C19.8494 26.2123 25.0178 21.3777 32.3465 20.2512C33.3794 20.0923 34.9825 20.0099 37.1558 20.004C39.6435 19.9981 42.1312 19.9987 44.6189 20.0058C44.6513 20.0058 44.6823 20.0147 44.7053 20.0306C44.7282 20.0465 44.7411 20.0681 44.7411 20.0905V25.4319C44.7411 25.4539 44.7271 25.475 44.7024 25.4906C44.6777 25.5061 44.6441 25.5149 44.6091 25.5149C42.1947 25.5219 39.7836 25.5237 37.3757 25.5202C35.5054 25.5166 34.1533 25.5996 33.3191 25.7691C28.3755 26.7668 26.0149 30.8544 28.5417 34.1775C30.1692 36.3188 32.819 37.3353 36.4911 37.227C44.0055 37.0062 50.3909 32.9398 51.9671 27.6673C52.6342 25.4319 52.3239 22.5255 52.3141 20.0923C52.3141 20.0684 52.3272 20.0455 52.3506 20.0286C52.374 20.0117 52.4057 20.0022 52.4387 20.0022H59.831C59.8461 20.0022 59.861 20.0047 59.8749 20.0094C59.8889 20.0141 59.9015 20.021 59.9122 20.0297C59.9229 20.0383 59.9313 20.0487 59.9371 20.06C59.9429 20.0714 59.9458 20.0835 59.9458 20.0958C59.9589 23.0646 59.9621 24.8286 59.9556 25.3877C59.8774 31.3171 55.6205 36.6955 48.8611 39.9462C48.8498 39.9514 48.8403 39.9586 48.8336 39.967C48.8269 39.9755 48.8232 39.985 48.8227 39.9947C48.8222 40.0044 48.825 40.0141 48.8309 40.0229C48.8367 40.0317 48.8454 40.0393 48.8563 40.0451C49.4085 40.3429 49.9576 40.6384 50.5033 40.9315C55.6253 43.6913 58.8315 47.8655 59.7186 52.3664C60.1584 54.5965 59.9532 57.4252 59.9458 59.899C59.9458 59.9117 59.9429 59.9243 59.9371 59.9361C59.9313 59.9479 59.9229 59.9586 59.9122 59.9676C59.9015 59.9767 59.8889 59.9838 59.8749 59.9887C59.861 59.9936 59.8461 59.9961 59.831 59.9961H52.4998C52.4607 59.9961 52.4232 59.9848 52.3953 59.9646C52.3674 59.9445 52.3514 59.9171 52.3508 59.8884C52.2897 57.5629 52.5341 54.7554 52.1064 52.8096C50.8894 47.2846 44.4454 43.3187 36.9065 42.7855C29.7269 42.2787 24.8859 47.8002 29.199 52.1103C31.1662 54.0756 33.6955 54.4746 37.1093 54.4764C39.6101 54.4776 42.11 54.4793 44.6091 54.4817C44.6442 54.4822 44.6778 54.4913 44.7024 54.5071C44.7271 54.523 44.741 54.5443 44.7411 54.5665V59.9078C44.7411 59.9189 44.7376 59.9299 44.7308 59.9402C44.7241 59.9505 44.7142 59.9599 44.7017 59.9677C44.6892 59.9756 44.6744 59.9818 44.6581 59.9861C44.6418 59.9904 44.6243 59.9926 44.6067 59.9926C42.3275 59.9914 40.0499 59.9937 37.774 59.9996C35.5274 60.0055 33.904 59.9437 32.9037 59.8142C19.8372 58.135 15.6389 46.3894 25.3624 40.0504C25.3747 40.0425 25.3845 40.0329 25.3913 40.022C25.398 40.0112 25.4015 39.9994 25.4015 39.9874C25.4015 39.9754 25.398 39.9635 25.3913 39.9525C25.3845 39.9414 25.3747 39.9315 25.3624 39.9232Z" fill="#EAF6FE"/>
</svg>
