<svg width="352" height="80" viewBox="0 0 352 80" fill="none" xmlns="http://www.w3.org/2000/svg">
<circle cx="40" cy="40" r="40" fill="#3CA9EB"/>
<path d="M25.3624 39.9232C21.8858 37.6313 20.0995 34.8438 20.0033 31.5607C19.8494 26.2123 25.0178 21.3777 32.3465 20.2512C33.3794 20.0923 34.9825 20.0099 37.1558 20.004C39.6435 19.9981 42.1312 19.9987 44.6189 20.0058C44.6513 20.0058 44.6823 20.0147 44.7053 20.0306C44.7282 20.0465 44.7411 20.0681 44.7411 20.0905V25.4319C44.7411 25.4539 44.7271 25.475 44.7024 25.4906C44.6777 25.5061 44.6441 25.5149 44.6091 25.5149C42.1947 25.5219 39.7836 25.5237 37.3757 25.5202C35.5054 25.5166 34.1533 25.5996 33.3191 25.7691C28.3755 26.7668 26.0149 30.8544 28.5417 34.1775C30.1692 36.3188 32.819 37.3353 36.4911 37.227C44.0055 37.0062 50.3909 32.9398 51.9671 27.6673C52.6342 25.4319 52.3239 22.5255 52.3141 20.0923C52.3141 20.0684 52.3272 20.0455 52.3506 20.0286C52.374 20.0117 52.4057 20.0022 52.4387 20.0022H59.831C59.8461 20.0022 59.861 20.0047 59.8749 20.0094C59.8889 20.0141 59.9015 20.021 59.9122 20.0297C59.9229 20.0383 59.9313 20.0487 59.9371 20.06C59.9429 20.0714 59.9458 20.0835 59.9458 20.0958C59.9589 23.0646 59.9621 24.8286 59.9556 25.3877C59.8774 31.3171 55.6205 36.6955 48.8611 39.9462C48.8498 39.9514 48.8403 39.9586 48.8336 39.967C48.8269 39.9755 48.8232 39.985 48.8227 39.9947C48.8222 40.0044 48.825 40.0141 48.8309 40.0229C48.8367 40.0317 48.8454 40.0393 48.8563 40.0451C49.4085 40.3429 49.9576 40.6384 50.5033 40.9315C55.6253 43.6913 58.8315 47.8655 59.7186 52.3664C60.1584 54.5965 59.9532 57.4252 59.9458 59.899C59.9458 59.9117 59.9429 59.9243 59.9371 59.9361C59.9313 59.9479 59.9229 59.9586 59.9122 59.9676C59.9015 59.9767 59.8889 59.9838 59.8749 59.9887C59.861 59.9936 59.8461 59.9961 59.831 59.9961H52.4998C52.4607 59.9961 52.4232 59.9848 52.3953 59.9646C52.3674 59.9445 52.3514 59.9171 52.3508 59.8884C52.2897 57.5629 52.5341 54.7554 52.1064 52.8096C50.8894 47.2846 44.4454 43.3187 36.9065 42.7855C29.7269 42.2787 24.8859 47.8002 29.199 52.1103C31.1662 54.0756 33.6955 54.4746 37.1093 54.4764C39.6101 54.4776 42.11 54.4793 44.6091 54.4817C44.6442 54.4822 44.6778 54.4913 44.7024 54.5071C44.7271 54.523 44.741 54.5443 44.7411 54.5665V59.9078C44.7411 59.9189 44.7376 59.9299 44.7308 59.9402C44.7241 59.9505 44.7142 59.9599 44.7017 59.9677C44.6892 59.9756 44.6744 59.9818 44.6581 59.9861C44.6418 59.9904 44.6243 59.9926 44.6067 59.9926C42.3275 59.9914 40.0499 59.9937 37.774 59.9996C35.5274 60.0055 33.904 59.9437 32.9037 59.8142C19.8372 58.135 15.6389 46.3894 25.3624 40.0504C25.3747 40.0425 25.3845 40.0329 25.3913 40.022C25.398 40.0112 25.4015 39.9994 25.4015 39.9874C25.4015 39.9754 25.398 39.9635 25.3913 39.9525C25.3845 39.9414 25.3747 39.9315 25.3624 39.9232Z" fill="#EAF6FE"/>
<path d="M100.304 62V18.3636H128.685V24.9901H108.209V36.8366H127.214V43.4631H108.209V55.3736H128.855V62H100.304ZM144.121 18.3636V62H136.408V18.3636H144.121ZM166.542 62.6392C163.26 62.6392 160.426 61.9574 158.04 60.5938C155.668 59.2159 153.843 57.2699 152.564 54.7557C151.286 52.2273 150.647 49.2514 150.647 45.8281C150.647 42.4616 151.286 39.5071 152.564 36.9645C153.857 34.4077 155.661 32.419 157.976 30.9986C160.292 29.5639 163.012 28.8466 166.137 28.8466C168.154 28.8466 170.057 29.1733 171.847 29.8267C173.651 30.4659 175.242 31.4602 176.62 32.8097C178.012 34.1591 179.105 35.8778 179.901 37.9659C180.696 40.0398 181.094 42.5114 181.094 45.3807V47.7457H154.269V42.5469H173.701C173.686 41.0696 173.367 39.7557 172.742 38.6051C172.117 37.4403 171.243 36.5241 170.121 35.8565C169.013 35.1889 167.721 34.8551 166.243 34.8551C164.667 34.8551 163.282 35.2386 162.088 36.0057C160.895 36.7585 159.965 37.7528 159.297 38.9886C158.644 40.2102 158.31 41.5526 158.296 43.0156V47.554C158.296 49.4574 158.644 51.0909 159.34 52.4545C160.036 53.804 161.009 54.8409 162.259 55.5653C163.509 56.2756 164.972 56.6307 166.648 56.6307C167.77 56.6307 168.786 56.4744 169.695 56.1619C170.604 55.8352 171.392 55.3594 172.06 54.7344C172.728 54.1094 173.232 53.3352 173.573 52.4119L180.775 53.2216C180.32 55.125 179.453 56.7869 178.175 58.2074C176.911 59.6136 175.292 60.7074 173.317 61.4886C171.343 62.2557 169.084 62.6392 166.542 62.6392ZM187.619 62V29.2727H194.991V34.8338H195.375C196.057 32.9588 197.186 31.4957 198.763 30.4446C200.339 29.3793 202.222 28.8466 204.409 28.8466C206.625 28.8466 208.493 29.3864 210.013 30.4659C211.547 31.5312 212.626 32.9872 213.251 34.8338H213.592C214.317 33.0156 215.538 31.5668 217.257 30.4872C218.99 29.3935 221.043 28.8466 223.415 28.8466C226.426 28.8466 228.884 29.7983 230.787 31.7017C232.69 33.6051 233.642 36.3821 233.642 40.0327V62H225.908V41.2259C225.908 39.1946 225.368 37.7102 224.288 36.7727C223.209 35.821 221.888 35.3452 220.325 35.3452C218.464 35.3452 217.009 35.9276 215.957 37.0923C214.92 38.2429 214.402 39.7415 214.402 41.5881V62H206.838V40.9062C206.838 39.2159 206.327 37.8665 205.304 36.858C204.295 35.8494 202.974 35.3452 201.341 35.3452C200.233 35.3452 199.224 35.6293 198.315 36.1974C197.406 36.7514 196.682 37.5398 196.142 38.5625C195.602 39.571 195.332 40.75 195.332 42.0994V62H187.619ZM241.808 62V18.3636H249.713V38.4134H250.245L267.27 18.3636H276.922L260.047 37.9446L277.071 62H267.568L254.549 43.2926L249.713 49.0028V62H241.808ZM284.123 62V29.2727H291.836V62H284.123ZM288.001 24.6278C286.779 24.6278 285.728 24.223 284.848 23.4134C283.967 22.5895 283.527 21.6023 283.527 20.4517C283.527 19.2869 283.967 18.2997 284.848 17.4901C285.728 16.6662 286.779 16.2543 288.001 16.2543C289.237 16.2543 290.288 16.6662 291.154 17.4901C292.035 18.2997 292.475 19.2869 292.475 20.4517C292.475 21.6023 292.035 22.5895 291.154 23.4134C290.288 24.223 289.237 24.6278 288.001 24.6278ZM316.11 29.2727V35.2386H297.296V29.2727H316.11ZM301.941 21.4318H309.654V52.1562C309.654 53.1932 309.81 53.9886 310.123 54.5426C310.45 55.0824 310.876 55.4517 311.401 55.6506C311.927 55.8494 312.509 55.9489 313.148 55.9489C313.631 55.9489 314.072 55.9134 314.469 55.8423C314.881 55.7713 315.194 55.7074 315.407 55.6506L316.707 61.6804C316.295 61.8224 315.705 61.9787 314.938 62.1491C314.185 62.3196 313.262 62.419 312.168 62.4474C310.237 62.5043 308.496 62.2131 306.948 61.5739C305.4 60.9205 304.171 59.9119 303.262 58.5483C302.367 57.1847 301.927 55.4801 301.941 53.4347V21.4318ZM347.958 37.9233L340.927 38.6903C340.728 37.9801 340.38 37.3125 339.883 36.6875C339.4 36.0625 338.747 35.5582 337.923 35.1747C337.099 34.7912 336.091 34.5994 334.897 34.5994C333.292 34.5994 331.943 34.9474 330.849 35.6435C329.77 36.3395 329.237 37.2415 329.251 38.3494C329.237 39.3011 329.585 40.0753 330.295 40.6719C331.02 41.2685 332.213 41.7585 333.875 42.142L339.457 43.3352C342.554 44.0028 344.855 45.0611 346.36 46.5099C347.88 47.9588 348.647 49.8551 348.662 52.1989C348.647 54.2585 348.044 56.0767 346.85 57.6534C345.672 59.2159 344.031 60.4375 341.929 61.3182C339.826 62.1989 337.412 62.6392 334.684 62.6392C330.679 62.6392 327.454 61.8011 325.011 60.125C322.568 58.4347 321.112 56.0838 320.643 53.0724L328.164 52.348C328.505 53.8253 329.23 54.9403 330.338 55.6932C331.446 56.446 332.887 56.8224 334.663 56.8224C336.495 56.8224 337.966 56.446 339.074 55.6932C340.196 54.9403 340.757 54.0099 340.757 52.902C340.757 51.9645 340.395 51.1903 339.67 50.5795C338.96 49.9687 337.852 49.5 336.346 49.1733L330.764 48.0014C327.625 47.348 325.302 46.2472 323.797 44.6989C322.291 43.1364 321.545 41.1619 321.559 38.7756C321.545 36.7585 322.092 35.0114 323.2 33.5341C324.322 32.0426 325.877 30.892 327.866 30.0824C329.869 29.2585 332.177 28.8466 334.791 28.8466C338.626 28.8466 341.645 29.6634 343.846 31.2969C346.062 32.9304 347.433 35.1392 347.958 37.9233Z" fill="#EAF6FE"/>
</svg>
