<svg width="185" height="196" viewBox="0 0 185 196" fill="none" xmlns="http://www.w3.org/2000/svg">
<path d="M28.8161 34.6496C28.4757 34.7916 28.2803 34.8656 28.23 34.8715C28.0287 34.8951 27.803 34.8196 27.5529 34.6449C26.5779 33.5095 25.7215 31.4291 24.9837 28.4038C24.2711 25.3756 23.7849 22.7544 23.5249 20.5403C23.4836 20.1881 23.7145 19.9824 24.2177 19.9233C24.9725 19.8347 25.3987 20.2056 25.4961 21.0358C25.5227 21.2623 25.5323 21.4525 25.5249 21.6064C25.6893 21.0514 26.0535 20.4603 26.6175 19.8329C27.1816 19.2055 27.8566 18.6544 28.6426 18.1795C29.4286 17.7046 30.2493 17.417 31.1047 17.3165C33.7969 17.0005 35.8997 17.9652 37.4132 20.2107C38.9237 22.4311 39.8858 25.3025 40.2993 28.825C40.4411 30.0327 40.429 31.0161 40.2631 31.7753C40.0942 32.5094 39.7958 32.9015 39.3681 32.9517C38.9152 33.0049 38.6725 32.8931 38.64 32.6163C38.6596 31.2621 38.5941 29.9434 38.4434 28.6602C38.0624 25.4145 37.2083 23.0278 35.8811 21.5002C34.551 19.9473 32.955 19.2802 31.0931 19.4988C30.1873 19.6051 29.3333 19.9349 28.531 20.4883C27.7539 21.0386 27.1484 21.7474 26.7145 22.6146C26.3058 23.4788 26.162 24.4267 26.2832 25.4583C26.419 26.6156 26.6001 27.6147 26.8263 28.4554C27.0525 29.2961 27.3749 30.304 27.7935 31.4792C28.2342 32.6263 28.5751 33.6831 28.8161 34.6496Z" fill="#EAF6FE"/>
<path d="M52.7323 31.6889C51.122 31.8779 49.6006 31.7377 48.1681 31.2682C46.7356 30.7987 45.5488 30.0325 44.6078 28.9696C43.6668 27.9067 43.1077 26.6205 42.9304 25.1109C42.7325 23.4251 42.8624 21.8156 43.3201 20.2825C43.7749 18.7242 44.5544 17.4338 45.6587 16.4114C46.7852 15.3609 48.1662 14.7396 49.8017 14.5477C51.5126 14.3468 52.8733 14.7482 53.8839 15.7519C54.8915 16.7304 55.4677 18.0529 55.6123 19.7194C55.7866 21.2039 55.3282 22.4055 54.2372 23.3243C53.1714 24.2402 51.7327 24.8045 49.9212 25.0171C49.6444 25.0496 49.2263 25.0732 48.6669 25.0879C47.7493 25.0936 47.0914 25.0305 46.6934 24.8987C46.2953 24.7669 46.0652 24.4368 46.0032 23.9084C45.9825 23.7323 46.0181 23.6006 46.1098 23.5133C46.1987 23.4008 46.394 23.3268 46.696 23.2914C47.0231 23.253 47.6106 23.2605 48.4586 23.314C49.2815 23.3705 50.0074 23.3618 50.6364 23.2879C52.9512 23.0162 53.9904 21.8739 53.7541 19.861C53.6124 18.6533 53.2737 17.7238 52.7381 17.0725C52.2276 16.4182 51.4189 16.1561 50.3118 16.286C49.1041 16.4278 48.0606 16.8819 47.1813 17.6483C46.2991 18.3896 45.6543 19.307 45.247 20.4006C44.8649 21.4913 44.7418 22.6153 44.8777 23.7727C45.111 25.7604 45.8566 27.3308 47.1143 28.484C48.369 29.6121 50.1538 30.0403 52.4686 29.7685C52.7453 29.736 53.2078 29.6562 53.8561 29.5291C54.1299 29.4714 54.4607 29.3561 54.8485 29.183C55.2363 29.01 55.5153 28.8879 55.6855 28.8169C56.7231 28.3125 57.4935 28.0308 57.9968 27.9717C58.3742 27.9274 58.6753 27.9941 58.9002 28.1717C58.3835 29.2017 57.5227 30.0169 56.3178 30.6175C55.1351 31.19 53.94 31.5471 52.7323 31.6889Z" fill="#EAF6FE"/>
<path d="M77.4772 28.5926C76.0682 28.758 74.8924 28.6282 73.9498 28.2032C73.0293 27.7501 72.325 26.9655 71.8369 25.8495C71.2357 27.2465 70.4829 28.3296 69.5784 29.099C68.671 29.8432 67.6512 30.2818 66.5189 30.4147C64.5564 30.6451 62.9641 30.1178 61.7419 28.8329C60.5198 27.548 59.7241 25.333 59.3548 22.1879C59.1806 20.7034 59.1838 19.4277 59.3647 18.3606C59.5707 17.2907 60.0008 16.2836 60.6552 15.3396C61.0222 15.424 61.2568 15.575 61.3588 15.7926C61.4831 15.9821 61.5689 16.2781 61.6161 16.6807C61.6634 17.0832 61.6603 17.4917 61.607 17.9061C61.5787 18.3175 61.5565 18.5625 61.5402 18.6409C61.4527 19.4164 61.3926 20.0994 61.3599 20.6899C61.3494 21.2523 61.3929 21.9486 61.4903 22.7789C61.703 24.5905 62.2169 26.0351 63.0321 27.1127C63.8696 28.1622 64.9424 28.6102 66.2508 28.4566C67.7353 28.2823 68.8365 27.6684 69.5546 26.6148C70.2948 25.5331 70.5793 24.2626 70.408 22.8033L69.6919 18.9848C69.6742 18.8338 69.7571 18.671 69.9406 18.4964C70.1494 18.3189 70.3921 18.2139 70.6689 18.1814C71.0211 18.14 71.2882 18.351 71.4701 18.8143C71.6521 19.2776 71.8539 20.0191 72.0756 21.0389C72.3772 22.3043 72.6648 23.3419 72.9384 24.1515C73.2343 24.933 73.6958 25.6058 74.3232 26.1698C74.9476 26.7087 75.7882 26.9161 76.845 26.792C78.1282 26.6414 79.0177 26.1798 79.5137 25.4074C80.0068 24.6098 80.1853 23.6323 80.0495 22.4749C79.9284 21.4433 79.6001 20.3851 79.0646 19.3001C78.5513 18.187 77.9751 17.2982 77.3359 16.6335C77.2841 16.41 77.3752 16.208 77.6091 16.0275C77.8681 15.844 78.1405 15.7738 78.4261 15.8168C78.8908 15.8643 79.3532 16.2181 79.8133 16.8783C80.2986 17.5355 80.7165 18.3792 81.067 19.4094C81.4426 20.4366 81.6925 21.4786 81.8166 22.5353C82.0026 24.1204 81.7537 25.476 81.0696 26.6021C80.4108 27.7253 79.2133 28.3888 77.4772 28.5926Z" fill="#EAF6FE"/>
<path d="M97.7801 26.4386C97.151 26.5125 96.7937 26.1846 96.708 25.4549C96.6903 25.304 96.7037 24.9835 96.7482 24.4937C96.8179 24.0009 96.8188 23.4651 96.7509 22.8864L96.2147 18.3198C95.8792 16.5481 95.3092 14.4087 94.5047 11.9014C93.6204 9.14837 92.8854 6.58189 92.2999 4.20193C92.3252 3.76533 92.5014 3.52784 92.8285 3.48944C93.2562 3.43923 93.9049 4.5109 94.7746 6.70445C95.6414 8.87285 96.6935 12.5117 97.931 17.6209C98.2865 16.3038 98.8292 14.952 99.5592 13.5654C100.286 12.1537 101.09 10.9625 101.971 9.9918C102.852 9.02115 103.657 8.49299 104.387 8.40733C104.689 8.37188 104.888 8.43779 104.984 8.60506C105.105 8.76936 105.172 9.01654 105.186 9.34658C103.855 10.8292 102.536 12.5272 101.231 14.4405C99.9248 16.3538 99.328 17.7885 99.4403 18.7446C99.5082 19.3233 100.065 19.9339 101.109 20.5765C102.151 21.1939 103.41 21.7092 104.887 22.1225C106.361 22.5106 107.719 22.6701 108.961 22.6008C109.448 22.6202 109.721 22.8815 109.78 23.3847C109.88 24.2401 109.125 24.7624 107.515 24.9514C106.232 25.1021 104.762 24.7517 103.106 23.9003C101.476 23.0459 100.04 22.1176 98.8003 21.1154C98.7751 21.552 98.7691 21.9353 98.7823 22.2653C98.7926 22.5702 98.7984 22.8373 98.7999 23.0667C98.8292 24.1856 98.7868 25.0196 98.6727 25.5686C98.5808 26.0896 98.2833 26.3796 97.7801 26.4386Z" fill="#EAF6FE"/>
<path d="M114.027 24.5313C113.448 24.5993 112.883 23.811 112.333 22.1666C111.78 20.4971 111.381 19.0518 111.136 17.8307C110.89 16.6097 110.523 14.676 110.034 12.0296C109.958 11.6048 109.881 11.0528 109.801 10.3735C109.701 9.51799 109.694 8.91934 109.781 8.57748C109.894 8.23267 110.114 8.04107 110.441 8.00267C110.718 7.97017 110.939 8.00797 111.105 8.11605C111.293 8.19602 111.464 8.35442 111.62 8.59125L111.759 10.1053C111.948 11.7156 112.202 13.2289 112.522 14.6454C112.866 16.0588 113.356 17.9526 113.992 20.3267C114.317 21.3598 114.558 22.2116 114.713 22.8821C114.805 23.2284 114.783 23.588 114.648 23.9609C114.511 24.3087 114.303 24.4988 114.027 24.5313ZM110.646 3.88465C110.093 3.94963 109.652 3.7845 109.325 3.38927C109.024 2.99108 108.836 2.47747 108.762 1.84846C108.729 1.57169 108.718 1.36893 108.729 1.24018C108.656 0.84056 108.859 0.612691 109.337 0.556569C109.689 0.515216 110.052 0.561926 110.425 0.696697C110.82 0.803353 110.947 0.903284 110.805 0.996488C111.133 1.62112 111.319 2.12215 111.364 2.49956C111.402 2.82664 111.358 3.09969 111.23 3.3187C111.1 3.51254 110.905 3.70119 110.646 3.88465Z" fill="#EAF6FE"/>
<path d="M124.351 23.281C124.106 23.3608 123.945 23.4052 123.87 23.414C123.09 23.5056 122.481 22.9904 122.043 21.8685C121.63 20.7436 121.301 19.137 121.056 17.0487C120.956 16.1932 120.824 14.8567 120.662 13.0393C120.582 11.9263 120.51 11.0931 120.445 10.5395C117.35 10.9028 115.762 10.7322 115.679 10.0277C115.652 9.8013 115.657 9.62223 115.692 9.49052C115.753 9.35585 115.897 9.27523 116.123 9.24864L120.206 8.50152C120.036 7.2716 119.815 5.9329 119.543 4.4854C119.289 3.18887 119.084 1.98855 118.929 0.884435C118.897 0.60767 118.988 0.405674 119.202 0.278448C119.414 0.126061 119.646 0.0350986 119.897 0.0055608C120.199 -0.0298846 120.47 0.104121 120.71 0.407578C120.946 0.685875 121.084 0.988566 121.122 1.31565L122.197 8.19121L125.347 7.97442C125.82 7.86798 126.233 7.90878 126.586 8.09683C126.965 8.28192 127.198 8.63718 127.285 9.16259C126.783 9.45107 126.221 9.65739 125.598 9.78155C124.975 9.90572 123.921 10.0549 122.436 10.2292C122.711 12.5691 123.276 16.4054 124.132 21.738C124.197 22.2916 124.243 22.6815 124.269 22.908C124.318 23.1063 124.345 23.2306 124.351 23.281Z" fill="#EAF6FE"/>
<path d="M130.62 18.0303C130.939 17.7122 131.263 17.5339 131.59 17.4955C131.892 17.4601 132.191 17.5142 132.489 17.6578C132.811 17.7985 133.14 17.9895 133.474 18.2308C133.806 18.447 134.067 18.6076 134.258 18.7127C134.89 19.0977 135.724 19.3569 136.76 19.4903C137.796 19.6238 138.88 19.6241 140.012 19.4911C141.295 19.3405 142.412 18.9671 143.362 18.3709C144.335 17.7466 144.772 17.0193 144.675 16.189C144.586 15.4341 144.24 14.8754 143.636 14.5126C143.029 14.1247 142.324 13.8759 141.521 13.7662C140.717 13.6565 139.663 13.5889 138.359 13.5634C136.6 13.5659 135.186 13.4768 134.119 13.2959C133.078 13.1122 132.215 12.7161 131.531 12.1076C130.845 11.474 130.427 10.5282 130.28 9.27017C130.12 7.9115 130.644 6.82975 131.85 6.02494C133.054 5.19496 134.486 4.6825 136.146 4.48755C137.656 4.31032 138.977 4.48676 140.111 5.01688C141.267 5.51888 141.927 6.35968 142.091 7.53927C142.221 8.21269 142.183 8.76546 141.979 9.19757C141.772 9.60451 141.492 9.82866 141.14 9.87002C140.939 9.89365 140.754 9.83884 140.585 9.7056C140.441 9.56941 140.355 9.37551 140.325 9.1239C140.278 8.72133 140.365 8.26478 140.585 7.75424C140.389 7.16515 139.92 6.761 139.18 6.54178C138.466 6.3196 137.63 6.26464 136.674 6.37688C135.265 6.54229 134.176 6.93792 133.408 7.56377C132.637 8.16446 132.293 8.81705 132.375 9.52154C132.464 10.2764 132.834 10.8196 133.485 11.1513C134.136 11.483 134.9 11.6866 135.776 11.7623C136.674 11.8099 137.937 11.8147 139.565 11.7766C140.92 11.7962 142.027 11.883 142.886 12.0372C143.771 12.1883 144.546 12.5948 145.21 13.2565C145.872 13.8931 146.281 14.8781 146.437 16.2116C146.6 17.5954 146.087 18.7652 144.898 19.721C143.706 20.6516 142.217 21.2218 140.431 21.4315C138.141 21.7003 136.045 21.5511 134.142 20.9838C132.264 20.4135 131.09 19.429 130.62 18.0303Z" fill="#EAF6FE"/>
<path d="M10.4584 89.0088C7.84175 89.316 5.51155 89.1304 3.46785 88.4521C1.44636 87.7456 0.299742 86.235 0.0279936 83.9203C-0.0694813 83.09 0.087603 82.2553 0.499247 81.4162C0.91089 80.5772 1.57928 79.861 2.50442 79.2678C3.42661 78.6494 4.59219 78.2575 6.00118 78.0921C7.08309 77.965 8.00736 77.9075 8.77399 77.9196C9.54062 77.9316 10.4411 78.1065 11.4756 78.4442C12.51 78.7819 13.6132 79.3793 14.7851 80.2365C14.1788 78.5477 13.3962 77.0964 12.4375 75.8825C11.4787 74.6687 10.4548 73.7686 9.36567 73.1823C8.29875 72.5678 7.28724 72.3167 6.33114 72.429C5.87825 72.4821 5.46086 72.6204 5.07896 72.8438C4.71928 73.0391 4.28039 73.3201 3.76231 73.6871C3.18055 74.1635 2.73871 74.4194 2.43679 74.4548C2.31098 74.4696 2.19333 74.4452 2.08383 74.3815C1.99653 74.2897 1.9455 74.1809 1.93073 74.0551C1.81258 73.0487 2.16132 72.217 2.97695 71.5601C3.81775 70.9003 4.8827 70.5202 6.17179 70.4198C7.94485 70.3137 9.64373 70.8795 11.2685 72.1172C12.8902 73.3297 14.2374 74.9188 15.3099 76.8845C16.4075 78.8472 17.0731 80.8224 17.3064 82.8101C17.3448 83.1372 17.3743 83.6056 17.3949 84.2154L16.1783 84.2817C14.9947 82.4565 13.6009 81.23 11.9967 80.6021C10.4148 79.9461 8.86901 79.7067 7.35937 79.8839C5.42201 80.1114 4.07215 80.5632 3.30979 81.2393C2.54743 81.9155 2.23123 82.8071 2.3612 83.9142C2.49707 85.0716 3.18505 85.9346 4.42515 86.5032C5.66524 87.0718 7.19106 87.2498 9.00262 87.0371C10.009 86.919 10.8083 86.7741 11.4003 86.6026C11.9894 86.4059 12.5992 86.1685 13.2298 85.8904C13.7374 85.6523 14.1881 85.4718 14.5819 85.3491C14.9756 85.2263 15.4869 85.128 16.1159 85.0542C16.8204 84.9715 17.2666 84.9701 17.4546 85.0501C17.6677 85.1271 17.7949 85.3417 17.8363 85.694C17.8658 85.9456 17.3869 86.3206 16.3997 86.8192C15.4124 87.3177 14.2949 87.7932 13.0471 88.2458C11.7994 88.6984 10.9365 88.9527 10.4584 89.0088Z" fill="#EAF6FE"/>
<path d="M27.5898 86.9594C26.4073 87.0982 25.3284 86.8167 24.3533 86.115C23.4033 85.4103 22.6266 84.4429 22.023 83.2129C21.4446 81.9799 21.0742 80.6715 20.9118 79.2877C20.6282 76.8723 20.8922 74.7752 21.7036 72.9964C22.5403 71.2147 24.0027 70.2013 26.0911 69.9561C27.3491 69.8085 28.4702 69.9064 29.4543 70.25C30.4606 70.5655 31.7917 71.1489 33.4476 72.0003L34.5086 72.5645C34.2853 71.749 33.9844 70.815 33.6058 69.7626C33.2272 68.7103 32.9765 67.9872 32.8537 67.5935C32.1956 65.6812 31.7098 64.2588 31.3962 63.3264C31.1049 62.3658 30.915 61.5081 30.8263 60.7533C30.6698 59.4198 30.9689 58.7087 31.7237 58.6201C32.0714 59.1914 32.5506 60.4488 33.1614 62.3922C33.7692 64.3104 34.5633 66.9465 35.5437 70.3004C36.5729 73.8526 37.4483 76.7469 38.17 78.9834C38.8917 81.2198 39.4375 82.6096 39.8073 83.1529C39.8753 83.7316 39.4815 84.0711 38.626 84.1716C37.9719 84.2484 37.4747 83.9241 37.1345 83.1989C36.8194 82.4706 36.5259 81.1659 36.2541 79.2848L35.9522 79.3203C35.1199 81.3565 33.9333 83.09 32.3922 84.5208C30.8512 85.9516 29.2504 86.7644 27.5898 86.9594ZM27.8633 85.0525C28.8949 84.9314 29.9518 84.3737 31.0339 83.3794C32.1382 82.357 33.0332 81.1806 33.7187 79.8503C34.4013 78.4948 34.6836 77.3138 34.5654 76.3074L34.4325 75.1752C31.5219 72.7621 28.9722 71.684 26.7832 71.941C25.2484 72.1212 24.1323 72.8261 23.435 74.0558C22.7346 75.2603 22.4908 76.7684 22.7035 78.58L22.8343 79.3681C23.2097 81.2626 23.8147 82.722 24.6491 83.7463C25.4836 84.7707 26.555 85.2061 27.8633 85.0525Z" fill="#EAF6FE"/>
<path d="M48.7822 84.4714C47.5996 84.6103 46.5208 84.3288 45.5456 83.6271C44.5957 82.9223 43.8189 81.955 43.2154 80.725C42.637 79.492 42.2666 78.1836 42.1041 76.7998C41.8206 74.3843 42.0845 72.2873 42.896 70.5085C43.7326 68.7268 45.1951 67.7134 47.2834 67.4682C48.5415 67.3205 49.6625 67.4185 50.6466 67.7621C51.6529 68.0776 52.9841 68.661 54.6399 69.5124L55.701 70.0766C55.4777 69.261 55.1767 68.3271 54.7981 67.2747C54.4195 66.2223 54.1688 65.4993 54.0461 65.1056C53.388 63.1933 52.9021 61.7709 52.5886 60.8384C52.2973 59.8779 52.1073 59.0202 52.0187 58.2653C51.8621 56.9318 52.1613 56.2208 52.9161 56.1322C53.2638 56.7035 53.743 57.9609 54.3537 59.9043C54.9615 61.8225 55.7556 64.4585 56.736 67.8124C57.7652 71.3647 58.6407 74.259 59.3624 76.4954C60.084 78.7319 60.6298 80.1217 60.9997 80.665C61.0676 81.2437 60.6739 81.5832 59.8184 81.6836C59.1642 81.7604 58.667 81.4362 58.3268 80.7109C58.0117 79.9827 57.7183 78.678 57.4464 76.7969L57.1445 76.8323C56.3123 78.8686 55.1256 80.6021 53.5846 82.0329C52.0436 83.4636 50.4428 84.2765 48.7822 84.4714ZM49.0557 82.5645C50.0873 82.4434 51.1441 81.8858 52.2262 80.8915C53.3306 79.8691 54.2255 78.6927 54.9111 77.3624C55.5937 76.0068 55.8759 74.8259 55.7578 73.8195L55.6248 72.6872C52.7143 70.2741 50.1645 69.1961 47.9756 69.4531C46.4408 69.6332 45.3247 70.3382 44.6273 71.5679C43.927 72.7724 43.6832 74.2805 43.8958 76.092L44.0266 76.8801C44.4021 78.7746 45.007 80.234 45.8415 81.2584C46.6759 82.2828 47.7474 82.7181 49.0557 82.5645Z" fill="#EAF6FE"/>
<path d="M72.4321 81.7333C70.8218 81.9223 69.3004 81.7821 67.8679 81.3126C66.4354 80.8431 65.2486 80.0769 64.3076 79.014C63.3666 77.9511 62.8075 76.6649 62.6303 75.1553C62.4324 73.4695 62.5623 71.86 63.02 70.3269C63.4747 68.7686 64.2542 67.4782 65.3586 66.4558C66.4851 65.4053 67.8661 64.784 69.5015 64.592C71.2124 64.3912 72.5732 64.7926 73.5838 65.7963C74.5914 66.7748 75.1675 68.0973 75.3121 69.7638C75.4864 71.2483 75.0281 72.4499 73.9371 73.3687C72.8713 74.2846 71.4326 74.8489 69.621 75.0615C69.3443 75.094 68.9262 75.1176 68.3667 75.1323C67.4491 75.1379 66.7913 75.0749 66.3932 74.9431C65.9951 74.8113 65.7651 74.4812 65.703 73.9528C65.6823 73.7767 65.7179 73.645 65.8097 73.5577C65.8985 73.4452 66.0939 73.3712 66.3958 73.3358C66.7229 73.2974 67.3105 73.3049 68.1585 73.3584C68.9813 73.4149 69.7073 73.4062 70.3363 73.3323C72.6511 73.0606 73.6903 71.9183 73.454 69.9054C73.3122 68.6977 72.9735 67.7682 72.4379 67.1169C71.9275 66.4626 71.1187 66.2005 70.0117 66.3304C68.804 66.4722 67.7605 66.9263 66.8812 67.6927C65.9989 68.434 65.3541 69.3514 64.9469 70.445C64.5648 71.5357 64.4417 72.6597 64.5775 73.8171C64.8109 75.8048 65.5564 77.3752 66.8141 78.5284C68.0689 79.6565 69.8536 80.0847 72.1684 79.8129C72.4452 79.7804 72.9077 79.7006 73.5559 79.5735C73.8298 79.5158 74.1606 79.4005 74.5484 79.2274C74.9362 79.0544 75.2152 78.9323 75.3854 78.8613C76.423 78.3569 77.1934 78.0752 77.6966 78.0161C78.074 77.9718 78.3752 78.0385 78.6001 78.2161C78.0833 79.2461 77.2225 80.0613 76.0176 80.6619C74.835 81.2344 73.6398 81.5915 72.4321 81.7333Z" fill="#EAF6FE"/>
<path d="M86.8915 79.9975C85.709 80.1363 84.6302 79.8549 83.655 79.1531C82.705 78.4484 81.9283 77.481 81.3248 76.251C80.7464 75.018 80.376 73.7096 80.2135 72.3258C79.9299 69.9104 80.1939 67.8133 81.0054 66.0346C81.842 64.2529 83.3045 63.2394 85.3928 62.9943C86.6508 62.8466 87.7719 62.9445 88.756 63.2881C89.7623 63.6036 91.0934 64.1871 92.7493 65.0385L93.8103 65.6026C93.5871 64.7871 93.2861 63.8531 92.9075 62.8008C92.5289 61.7484 92.2782 61.0254 92.1555 60.6317C91.4973 58.7194 91.0115 57.297 90.698 56.3645C90.4067 55.4039 90.2167 54.5462 90.1281 53.7914C89.9715 52.4579 90.2707 51.7468 91.0255 51.6582C91.3731 52.2296 91.8523 53.4869 92.4631 55.4303C93.0709 57.3485 93.865 59.9846 94.8454 63.3385C95.8746 66.8907 96.75 69.785 97.4717 72.0215C98.1934 74.2579 98.7392 75.6478 99.1091 76.191C99.177 76.7697 98.7832 77.1093 97.9278 77.2097C97.2736 77.2865 96.7764 76.9623 96.4362 76.237C96.1211 75.5087 95.8277 74.2041 95.5558 72.3229L95.2539 72.3584C94.4216 74.3946 93.235 76.1282 91.694 77.5589C90.1529 78.9897 88.5521 79.8026 86.8915 79.9975ZM87.1651 78.0906C88.1967 77.9695 89.2535 77.4118 90.3356 76.4175C91.4399 75.3951 92.3349 74.2187 93.0205 72.8884C93.7031 71.5329 93.9853 70.3519 93.8671 69.3455L93.7342 68.2133C90.8237 65.8002 88.2739 64.7221 86.085 64.9791C84.5502 65.1593 83.4341 65.8642 82.7367 67.0939C82.0364 68.2985 81.7925 69.8065 82.0052 71.6181L82.136 72.4062C82.5114 74.3007 83.1164 75.7601 83.9509 76.7845C84.7853 77.8088 85.8567 78.2442 87.1651 78.0906Z" fill="#EAF6FE"/>
<path d="M117.519 76.4019C116.337 76.5407 115.258 76.2593 114.283 75.5575C113.333 74.8528 112.556 73.8854 111.952 72.6554C111.374 71.4224 111.004 70.114 110.841 68.7302C110.557 66.3148 110.821 64.2177 111.633 62.439C112.47 60.6573 113.932 59.6438 116.02 59.3987C117.278 59.251 118.399 59.3489 119.384 59.6925C120.39 60.008 121.721 60.5915 123.377 61.4429L124.438 62.007C124.215 61.1915 123.914 60.2575 123.535 59.2052C123.156 58.1528 122.906 57.4298 122.783 57.0361C122.125 55.1238 121.639 53.7014 121.326 52.7689C121.034 51.8083 120.844 50.9506 120.756 50.1958C120.599 48.8623 120.898 48.1512 121.653 48.0626C122.001 48.634 122.48 49.8913 123.091 51.8347C123.698 53.7529 124.493 56.389 125.473 59.7429C126.502 63.2951 127.378 66.1894 128.099 68.4259C128.821 70.6623 129.367 72.0522 129.737 72.5954C129.805 73.1741 129.411 73.5137 128.555 73.6141C127.901 73.6909 127.404 73.3667 127.064 72.6414C126.749 71.9131 126.455 70.6085 126.183 68.7273L125.881 68.7628C125.049 70.799 123.863 72.5326 122.322 73.9633C120.781 75.3941 119.18 76.207 117.519 76.4019ZM117.793 74.495C118.824 74.3739 119.881 73.8162 120.963 72.8219C122.068 71.7995 122.962 70.6232 123.648 69.2928C124.331 67.9373 124.613 66.7563 124.495 65.7499L124.362 64.6177C121.451 62.2046 118.901 61.1265 116.713 61.3835C115.178 61.5637 114.062 62.2686 113.364 63.4983C112.664 64.7029 112.42 66.2109 112.633 68.0225L112.764 68.8106C113.139 70.7051 113.744 72.1645 114.578 73.1889C115.413 74.2132 116.484 74.6486 117.793 74.495Z" fill="#EAF6FE"/>
<path d="M141.962 73.5707C139.345 73.8779 137.015 73.6923 134.971 73.014C132.95 72.3075 131.803 70.7969 131.531 68.4821C131.434 67.6518 131.591 66.8172 132.002 65.9781C132.414 65.1391 133.082 64.4229 134.008 63.8297C134.93 63.2112 136.095 62.8193 137.504 62.6539C138.586 62.5269 139.51 62.4694 140.277 62.4814C141.044 62.4935 141.944 62.6683 142.979 63.006C144.013 63.3437 145.116 63.9412 146.288 64.7984C145.682 63.1096 144.899 61.6582 143.941 60.4444C142.982 59.2306 141.958 58.3305 140.869 57.7441C139.802 57.1297 138.79 56.8786 137.834 56.9908C137.381 57.044 136.964 57.1823 136.582 57.4057C136.222 57.6009 135.784 57.882 135.265 58.2489C134.684 58.7253 134.242 58.9813 133.94 59.0167C133.814 59.0315 133.696 59.007 133.587 58.9434C133.5 58.8516 133.449 58.7428 133.434 58.617C133.316 57.6106 133.664 56.7789 134.48 56.122C135.321 55.4621 136.386 55.082 137.675 54.9817C139.448 54.8756 141.147 55.4414 142.772 56.679C144.393 57.8915 145.741 59.4806 146.813 61.4463C147.911 63.4091 148.576 65.3843 148.81 67.3719C148.848 67.699 148.877 68.1675 148.898 68.7772L147.681 68.8435C146.498 67.0184 145.104 65.7919 143.5 65.164C141.918 64.508 140.372 64.2686 138.863 64.4458C136.925 64.6732 135.575 65.125 134.813 65.8012C134.051 66.4774 133.734 67.369 133.864 68.476C134 69.6334 134.688 70.4964 135.928 71.065C137.168 71.6337 138.694 71.8116 140.506 71.599C141.512 71.4808 142.311 71.336 142.903 71.1645C143.493 70.9678 144.102 70.7304 144.733 70.4523C145.241 70.2141 145.691 70.0337 146.085 69.9109C146.479 69.7882 146.99 69.6899 147.619 69.6161C148.324 69.5334 148.77 69.532 148.958 69.612C149.171 69.689 149.298 69.9036 149.339 70.2558C149.369 70.5074 148.89 70.8825 147.903 71.381C146.916 71.8795 145.798 72.3551 144.55 72.8076C143.303 73.2602 142.44 73.5146 141.962 73.5707Z" fill="#EAF6FE"/>
<path d="M155.177 72.0575C154.598 72.1254 154.034 71.3372 153.484 69.6928C152.93 68.0232 152.531 66.5779 152.286 65.3569C152.04 64.1358 151.673 62.2021 151.184 59.5558C151.109 59.131 151.031 58.579 150.951 57.8996C150.851 57.0442 150.844 56.4455 150.932 56.1037C151.044 55.7589 151.264 55.5672 151.591 55.5288C151.868 55.4964 152.089 55.5342 152.255 55.6422C152.443 55.7222 152.614 55.8806 152.77 56.1174L152.909 57.6315C153.098 59.2418 153.353 60.7551 153.672 62.1716C154.016 63.585 154.506 65.4788 155.142 67.8529C155.468 68.886 155.708 69.7378 155.863 70.4082C155.955 70.7546 155.933 71.1142 155.799 71.4871C155.661 71.8349 155.454 72.025 155.177 72.0575ZM151.796 51.4108C151.243 51.4758 150.803 51.3107 150.476 50.9154C150.174 50.5173 149.986 50.0037 149.912 49.3746C149.88 49.0979 149.869 48.8951 149.879 48.7664C149.807 48.3667 150.009 48.1389 150.487 48.0827C150.84 48.0414 151.202 48.0881 151.575 48.2229C151.97 48.3295 152.097 48.4295 151.955 48.5227C152.283 49.1473 152.469 49.6483 152.514 50.0257C152.552 50.3528 152.508 50.6259 152.38 50.8449C152.25 51.0387 152.055 51.2274 151.796 51.4108Z" fill="#EAF6FE"/>
<path d="M161.47 71.0126C160.595 68.3351 159.786 65.1396 159.044 61.4261C158.324 57.6845 157.757 54.0525 157.344 50.53C157.137 48.7688 156.991 47.2044 156.907 45.8369C156.869 45.5098 157.101 45.3167 157.605 45.2576C158.007 45.2104 158.271 45.2815 158.395 45.4709C158.544 45.6575 158.644 45.9646 158.694 46.3923C159.173 50.4683 159.658 53.9442 160.148 56.8199C160.636 59.6705 161.2 62.7416 161.842 66.0333C162.244 68.1542 162.514 69.5891 162.653 70.338C162.726 70.7376 162.536 70.964 162.083 71.0172C161.932 71.0349 161.728 71.0334 161.47 71.0126Z" fill="#EAF6FE"/>
<path d="M178.201 87.4137C176.49 87.6145 174.913 87.4299 173.468 86.8597C172.049 86.2866 170.881 85.5693 169.964 84.7077C169.046 83.8461 168.502 83.1193 168.33 82.5273C168.165 81.9856 168.24 81.5431 168.557 81.1998C168.899 80.8536 169.35 80.6731 169.909 80.6584C170.908 82.4288 172.007 83.7536 173.207 84.633C174.407 85.5124 176.016 85.8591 178.035 85.6732C179.447 85.5329 180.46 84.4957 181.075 82.5615C181.718 80.6495 182.06 78.3519 182.102 75.6687C182.147 73.0107 182.021 70.411 181.723 67.8698C181.569 66.5615 181.406 65.4966 181.233 64.6751C179.595 67.2395 177.292 68.696 174.323 69.0446C171.757 69.3459 169.638 68.3574 167.968 66.0793C166.323 63.7983 165.119 61.1466 164.356 58.1242C164.27 57.8282 164.195 57.4034 164.13 56.8499C163.944 55.2648 164.366 54.4117 165.398 54.2906C165.499 54.2788 165.711 54.8915 166.035 56.1289C166.545 58.0841 167.094 59.8306 167.683 61.3685C168.271 62.9063 169.108 64.2748 170.193 65.4738C171.299 66.6448 172.633 67.1387 174.193 66.9555C175.425 66.8108 176.636 66.2605 177.825 65.3048C179.036 64.3209 179.871 63.2917 180.332 62.2174C180.107 60.3052 179.655 58.6238 178.975 57.1732C178.316 55.6946 177.969 54.9064 177.932 54.8087C177.816 54.2611 177.75 53.9118 177.732 53.7608C177.673 53.2576 177.706 52.8839 177.83 52.6398C177.98 52.3926 178.218 52.2499 178.545 52.2115C178.897 52.1701 179.384 52.8399 180.005 54.2209C180.627 55.6019 181.249 57.4291 181.873 59.7025C182.497 61.9759 183.02 64.3633 183.441 66.8646C183.645 68.167 183.784 69.1327 183.858 69.7618C184.425 74.5926 184.291 78.664 183.455 81.976C182.645 85.2851 180.893 87.0976 178.201 87.4137Z" fill="#EAF6FE"/>
<path fill-rule="evenodd" clip-rule="evenodd" d="M93.0321 144.42C92.4829 145.536 91.9945 146.699 91.5689 147.897C88.4045 156.833 88.7649 167.807 94.8273 178.019C96.7625 181.28 99.0224 184.26 101.664 186.871C104.29 189.467 107.279 191.69 110.516 193.634C110.782 193.804 111.136 193.725 111.307 193.459C111.477 193.192 111.398 192.839 111.133 192.668C108.095 190.617 105.372 188.254 102.898 185.659C100.433 183.075 98.2186 180.255 96.3768 177.107C90.6985 167.399 90.411 157.013 93.4486 148.567C93.7583 147.707 94.1012 146.867 94.4799 146.051C95.6463 147.286 96.8986 148.413 98.2141 149.417C106.481 155.732 117.194 157.196 125.184 149.842C130.117 145.371 130.234 140.026 127.677 135.887C125.247 131.952 120.299 129.122 114.744 129.166C106.101 129.236 98.3655 134.732 93.8282 142.889C89.8165 137.827 87.2545 131.315 87.4108 124.362C87.5331 118.99 89.3964 114.298 92.1402 110.45C94.2338 107.514 96.9106 105.162 99.6666 103.205C100.944 102.297 102.179 101.417 103.495 100.719C103.604 100.673 103.656 100.548 103.611 100.44C103.566 100.331 103.441 100.279 103.331 100.324C101.86 100.774 100.377 101.308 98.9649 102.094C95.8545 103.826 93.0786 106.44 90.8303 109.501C87.8506 113.56 85.9289 118.603 85.8029 124.325C85.6358 131.922 88.547 139.003 93.0321 144.42ZM95.2304 144.534C96.4511 145.872 97.7771 147.084 99.1802 148.147C106.793 153.919 116.662 155.319 123.946 148.51C127.913 144.746 127.993 140.403 125.86 137.024C123.742 133.667 119.524 131.242 114.756 131.265C106.593 131.302 99.3716 136.693 95.2304 144.534Z" fill="#EAF6FE"/>
<path fill-rule="evenodd" clip-rule="evenodd" d="M110.858 193.431C108.977 192.851 106.143 191.967 105.84 191.87L100.417 190.271L91.4525 188.156C91.2536 188.098 91.0451 188.213 90.9877 188.413C90.9294 188.612 91.045 188.821 91.245 188.877L105.178 193.891C105.544 194.013 109.579 195.347 111.212 195.851C112.197 196.156 112.882 195.863 112.9 195.849C113.177 195.624 113.477 195.148 113.33 194.419C113.141 193.476 111.884 191.272 111.769 191.038L106.345 179.812C104.444 175.973 104.121 174.576 103.145 174.983C102.938 175.054 102.815 175.236 102.757 175.828C102.738 176.008 102.831 176.21 102.901 176.435C103.359 177.889 104.629 180.191 104.762 180.519L109.847 191.957C109.895 192.057 110.437 192.75 110.858 193.431Z" fill="#EAF6FE"/>
</svg>
