<svg width="186" height="197" viewBox="0 0 186 197" fill="none" xmlns="http://www.w3.org/2000/svg">
<path d="M29.6592 35.0028C29.3188 35.1448 29.1234 35.2187 29.0731 35.2246C28.8718 35.2482 28.6461 35.1727 28.3961 34.998C27.421 33.8626 26.5646 31.7823 25.8268 28.757C25.1142 25.7288 24.628 23.1076 24.368 20.8935C24.3267 20.5412 24.5576 20.3355 25.0608 20.2765C25.8156 20.1879 26.2418 20.5587 26.3393 21.389C26.3658 21.6154 26.3754 21.8056 26.368 21.9595C26.5324 21.4046 26.8966 20.8134 27.4606 20.186C28.0247 19.5587 28.6997 19.0075 29.4857 18.5327C30.2717 18.0578 31.0924 17.7701 31.9479 17.6697C34.64 17.3536 36.7429 18.3184 38.2563 20.5639C39.7669 22.7842 40.7289 25.6556 41.1424 29.1781C41.2842 30.3858 41.2721 31.3693 41.1062 32.1285C40.9373 32.8625 40.6389 33.2546 40.2112 33.3048C39.7583 33.358 39.5156 33.2462 39.4832 32.9694C39.5027 31.6153 39.4372 30.2966 39.2865 29.0134C38.9055 25.7677 38.0514 23.381 36.7242 21.8533C35.3941 20.3005 33.7981 19.6333 31.9362 19.8519C31.0304 19.9583 30.1764 20.2881 29.3741 20.8414C28.597 21.3918 27.9915 22.1005 27.5576 22.9677C27.1489 23.8319 27.0052 24.7798 27.1263 25.8114C27.2621 26.9688 27.4432 27.9678 27.6694 28.8085C27.8957 29.6492 28.218 30.6572 28.6366 31.8324C29.0773 32.9795 29.4182 34.0363 29.6592 35.0028Z" fill="#05273C"/>
<path d="M53.5754 32.042C51.9651 32.2311 50.4437 32.0908 49.0112 31.6213C47.5787 31.1518 46.3919 30.3856 45.4509 29.3228C44.5099 28.2599 43.9508 26.9736 43.7735 25.464C43.5756 23.7783 43.7055 22.1688 44.1632 20.6356C44.618 19.0773 45.3975 17.787 46.5018 16.7646C47.6283 15.7141 49.0093 15.0928 50.6448 14.9008C52.3557 14.6999 53.7164 15.1014 54.727 16.105C55.7347 17.0836 56.3108 18.4061 56.4554 20.0726C56.6297 21.557 56.1713 22.7587 55.0804 23.6775C54.0145 24.5933 52.5758 25.1576 50.7643 25.3703C50.4875 25.4028 50.0694 25.4263 49.51 25.441C48.5924 25.4467 47.9345 25.3836 47.5365 25.2518C47.1384 25.12 46.9083 24.7899 46.8463 24.2615C46.8256 24.0854 46.8612 23.9537 46.9529 23.8664C47.0418 23.754 47.2372 23.68 47.5391 23.6446C47.8662 23.6062 48.4537 23.6137 49.3017 23.6672C50.1246 23.7236 50.8505 23.7149 51.4795 23.6411C53.7943 23.3693 54.8336 22.227 54.5973 20.2142C54.4555 19.0065 54.1168 18.077 53.5812 17.4256C53.0707 16.7714 52.262 16.5092 51.1549 16.6392C49.9472 16.781 48.9037 17.2351 48.0244 18.0015C47.1422 18.7427 46.4974 19.6602 46.0901 20.7538C45.708 21.8444 45.5849 22.9685 45.7208 24.1258C45.9541 26.1135 46.6997 27.684 47.9574 28.8372C49.2121 29.9653 50.9969 30.3934 53.3117 30.1217C53.5884 30.0892 54.0509 30.0094 54.6992 29.8822C54.973 29.8246 55.3038 29.7092 55.6916 29.5362C56.0794 29.3631 56.3584 29.2411 56.5287 29.1701C57.5662 28.6657 58.3367 28.3839 58.8399 28.3248C59.2173 28.2805 59.5184 28.3472 59.7433 28.5249C59.2266 29.5548 58.3658 30.3701 57.1609 30.9706C55.9783 31.5431 54.7831 31.9002 53.5754 32.042Z" fill="#05273C"/>
<path d="M78.3203 28.9457C76.9113 29.1111 75.7355 28.9813 74.7929 28.5564C73.8724 28.1032 73.1681 27.3187 72.68 26.2026C72.0788 27.5996 71.326 28.6828 70.4215 29.4521C69.5141 30.1964 68.4943 30.6349 67.362 30.7678C65.3995 30.9982 63.8072 30.471 62.585 29.186C61.3629 27.9011 60.5672 25.6861 60.198 22.541C60.0237 21.0566 60.027 19.7808 60.2078 18.7138C60.4138 17.6438 60.8439 16.6368 61.4983 15.6927C61.8653 15.7772 62.0999 15.9282 62.202 16.1458C62.3262 16.3352 62.412 16.6313 62.4593 17.0338C62.5065 17.4364 62.5035 17.8449 62.4501 18.2592C62.4219 18.6707 62.3996 18.9156 62.3833 18.994C62.2958 19.7695 62.2357 20.4525 62.203 21.043C62.1925 21.6054 62.236 22.3018 62.3334 23.1321C62.5461 24.9436 63.06 26.3882 63.8753 27.4659C64.7127 28.5154 65.7856 28.9634 67.0939 28.8098C68.5784 28.6355 69.6796 28.0216 70.3977 26.968C71.138 25.8863 71.4224 24.6158 71.2511 23.1565L70.535 19.3379C70.5173 19.187 70.6002 19.0242 70.7837 18.8496C70.9925 18.672 71.2352 18.567 71.512 18.5345C71.8642 18.4932 72.1313 18.7041 72.3132 19.1674C72.4952 19.6307 72.697 20.3722 72.9187 21.392C73.2204 22.6575 73.508 23.695 73.7816 24.5046C74.0774 25.2861 74.539 25.9589 75.1663 26.5229C75.7908 27.0618 76.6313 27.2692 77.6881 27.1452C78.9713 26.9945 79.8608 26.533 80.3568 25.7605C80.8499 24.9629 81.0285 23.9855 80.8926 22.8281C80.7715 21.7965 80.4432 20.7382 79.9077 19.6533C79.3944 18.5402 78.8182 17.6513 78.179 16.9866C78.1272 16.7631 78.2183 16.5611 78.4522 16.3806C78.7112 16.1972 78.9836 16.127 79.2692 16.1699C79.7339 16.2174 80.1963 16.5712 80.6564 17.2314C81.1417 17.8887 81.5596 18.7324 81.9101 19.7625C82.2857 20.7897 82.5356 21.8317 82.6597 22.8884C82.8458 24.4736 82.5968 25.8292 81.9128 26.9553C81.2539 28.0784 80.0564 28.7419 78.3203 28.9457Z" fill="#05273C"/>
<path d="M98.6232 26.7918C97.9941 26.8656 97.6368 26.5377 97.5512 25.8081C97.5334 25.6571 97.5468 25.3367 97.5913 24.8468C97.661 24.354 97.6619 23.8182 97.594 23.2396L97.0579 18.6729C96.7223 16.9013 96.1523 14.7618 95.3478 12.2545C94.4635 9.50152 93.7285 6.93504 93.1431 4.55508C93.1683 4.11848 93.3445 3.88099 93.6716 3.84259C94.0993 3.79238 94.748 4.86405 95.6177 7.0576C96.4845 9.226 97.5366 12.8648 98.7741 17.974C99.1296 16.6569 99.6723 15.3051 100.402 13.9185C101.129 12.5068 101.933 11.3156 102.814 10.345C103.695 9.3743 104.5 8.84614 105.23 8.76048C105.532 8.72503 105.731 8.79094 105.827 8.95821C105.948 9.12251 106.016 9.36969 106.029 9.69973C104.698 11.1824 103.38 12.8803 102.074 14.7936C100.768 16.7069 100.171 18.1416 100.283 19.0977C100.351 19.6764 100.908 20.2871 101.952 20.9296C102.994 21.547 104.253 22.0624 105.73 22.4757C107.204 22.8638 108.562 23.0232 109.804 22.954C110.291 22.9733 110.564 23.2346 110.623 23.7378C110.723 24.5933 109.968 25.1155 108.358 25.3046C107.075 25.4552 105.605 25.1048 103.95 24.2534C102.319 23.3991 100.883 22.4708 99.6434 21.4685C99.6182 21.9051 99.6122 22.2884 99.6254 22.6185C99.6357 22.9233 99.6415 23.1905 99.643 23.4199C99.6723 24.5388 99.6299 25.3727 99.5158 25.9218C99.4239 26.4427 99.1264 26.7327 98.6232 26.7918Z" fill="#05273C"/>
<path d="M114.87 24.8845C114.291 24.9524 113.727 24.1642 113.176 22.5198C112.623 20.8502 112.224 19.4049 111.979 18.1839C111.733 16.9628 111.366 15.0291 110.877 12.3828C110.801 11.958 110.724 11.4059 110.644 10.7266C110.544 9.87114 110.537 9.27249 110.625 8.93063C110.737 8.58582 110.957 8.39422 111.284 8.35582C111.561 8.32332 111.782 8.36112 111.948 8.4692C112.136 8.54917 112.307 8.70757 112.463 8.9444L112.602 10.4585C112.791 12.0687 113.045 13.5821 113.365 14.9985C113.709 16.412 114.199 18.3058 114.835 20.6798C115.161 21.7129 115.401 22.5647 115.556 23.2352C115.648 23.5815 115.626 23.9412 115.491 24.3141C115.354 24.6619 115.146 24.852 114.87 24.8845ZM111.489 4.2378C110.936 4.30278 110.496 4.13765 110.169 3.74241C109.867 3.34422 109.679 2.83062 109.605 2.20161C109.573 1.92484 109.562 1.72208 109.572 1.59333C109.499 1.19371 109.702 0.965841 110.18 0.909719C110.533 0.868366 110.895 0.915075 111.268 1.04985C111.663 1.1565 111.79 1.25643 111.648 1.34964C111.976 1.97427 112.162 2.4753 112.207 2.8527C112.245 3.17979 112.201 3.45284 112.073 3.67184C111.943 3.86569 111.748 4.05434 111.489 4.2378Z" fill="#05273C"/>
<path d="M125.194 23.6341C124.949 23.714 124.788 23.7583 124.713 23.7672C123.933 23.8588 123.324 23.3436 122.886 22.2216C122.473 21.0967 122.144 19.4901 121.899 17.4018C121.799 16.5464 121.668 15.2099 121.505 13.3924C121.426 12.2795 121.353 11.4462 121.288 10.8927C118.193 11.256 116.605 11.0854 116.522 10.3809C116.495 10.1545 116.5 9.97538 116.535 9.84367C116.596 9.709 116.74 9.62838 116.966 9.60179L121.049 8.85466C120.879 7.62475 120.658 6.28605 120.386 4.83855C120.132 3.54202 119.927 2.3417 119.772 1.23758C119.74 0.960819 119.831 0.758823 120.045 0.631597C120.257 0.47921 120.489 0.388248 120.74 0.35871C121.042 0.323265 121.313 0.457271 121.553 0.760728C121.789 1.03902 121.927 1.34172 121.965 1.6688L123.04 8.54436L126.191 8.32757C126.663 8.22113 127.076 8.26193 127.429 8.44998C127.808 8.63507 128.041 8.99033 128.128 9.51574C127.627 9.80422 127.064 10.0105 126.441 10.1347C125.818 10.2589 124.764 10.4081 123.28 10.5824C123.554 12.9223 124.119 16.7586 124.975 22.0912C125.04 22.6447 125.086 23.0347 125.112 23.2611C125.161 23.4595 125.189 23.5838 125.194 23.6341Z" fill="#05273C"/>
<path d="M131.463 18.3835C131.782 18.0653 132.106 17.8871 132.433 17.8487C132.735 17.8132 133.034 17.8673 133.332 18.011C133.655 18.1516 133.983 18.3426 134.317 18.584C134.649 18.8001 134.91 18.9608 135.101 19.0659C135.733 19.4508 136.567 19.71 137.603 19.8435C138.639 19.977 139.723 19.9772 140.855 19.8443C142.138 19.6937 143.255 19.3202 144.205 18.724C145.178 18.0997 145.615 17.3724 145.518 16.5421C145.429 15.7873 145.083 15.2285 144.479 14.8658C143.873 14.4779 143.167 14.229 142.364 14.1193C141.56 14.0096 140.506 13.942 139.203 13.9165C137.443 13.9191 136.03 13.8299 134.962 13.6491C133.921 13.4653 133.058 13.0692 132.374 12.4608C131.688 11.8272 131.271 10.8813 131.123 9.62332C130.963 8.26465 131.487 7.1829 132.693 6.37809C133.897 5.54811 135.329 5.03565 136.989 4.8407C138.499 4.66347 139.82 4.83991 140.954 5.37003C142.11 5.87203 142.77 6.71283 142.934 7.89242C143.064 8.56584 143.027 9.11861 142.822 9.55072C142.615 9.95766 142.335 10.1818 141.983 10.2232C141.782 10.2468 141.597 10.192 141.428 10.0588C141.284 9.92256 141.198 9.72866 141.168 9.47705C141.121 9.07448 141.208 8.61793 141.428 8.10739C141.232 7.5183 140.763 7.11415 140.023 6.89493C139.309 6.67275 138.473 6.61779 137.517 6.73003C136.108 6.89544 135.02 7.29107 134.251 7.91692C133.48 8.51761 133.136 9.1702 133.219 9.87469C133.307 10.6295 133.677 11.1728 134.328 11.5044C134.979 11.8361 135.743 12.0398 136.619 12.1155C137.517 12.1631 138.78 12.1678 140.408 12.1297C141.763 12.1493 142.87 12.2362 143.73 12.3903C144.615 12.5415 145.389 12.9479 146.054 13.6096C146.715 14.2462 147.124 15.2312 147.28 16.5647C147.443 17.9486 146.93 19.1184 145.741 20.0742C144.55 21.0048 143.061 21.5749 141.274 21.7847C138.985 22.0535 136.888 21.9042 134.985 21.3369C133.107 20.7666 131.933 19.7822 131.463 18.3835Z" fill="#05273C"/>
<path d="M11.3016 89.362C8.68486 89.6692 6.35466 89.4836 4.31096 88.8052C2.28947 88.0988 1.14285 86.5882 0.871103 84.2734C0.773628 83.4431 0.930712 82.6084 1.34236 81.7694C1.754 80.9303 2.42239 80.2142 3.34753 79.6209C4.26972 79.0025 5.4353 78.6106 6.84429 78.4452C7.9262 78.3182 8.85046 78.2607 9.6171 78.2727C10.3837 78.2848 11.2843 78.4596 12.3187 78.7973C13.3531 79.135 14.4563 79.7325 15.6282 80.5897C15.0219 78.9008 14.2393 77.4495 13.2806 76.2357C12.3218 75.0219 11.2979 74.1218 10.2088 73.5354C9.14186 72.921 8.13035 72.6699 7.17425 72.7821C6.72136 72.8353 6.30397 72.9736 5.92207 73.1969C5.56239 73.3922 5.1235 73.6733 4.60542 74.0402C4.02366 74.5166 3.58182 74.7726 3.2799 74.808C3.15409 74.8228 3.03644 74.7983 2.92694 74.7346C2.83964 74.6429 2.78861 74.5341 2.77384 74.4083C2.65569 73.4019 3.00443 72.5702 3.82006 71.9133C4.66086 71.2534 5.72581 70.8733 7.0149 70.773C8.78795 70.6669 10.4868 71.2326 12.1116 72.4703C13.7333 73.6828 15.0805 75.2719 16.153 77.2376C17.2507 79.2003 17.9162 81.1756 18.1495 83.1632C18.1879 83.4903 18.2174 83.9587 18.238 84.5685L17.0214 84.6348C15.8379 82.8097 14.444 81.5832 12.8399 80.9553C11.2579 80.2992 9.71212 80.0598 8.20248 80.2371C6.26512 80.4645 4.91526 80.9163 4.1529 81.5925C3.39054 82.2687 3.07434 83.1603 3.20431 84.2673C3.34018 85.4247 4.02816 86.2877 5.26825 86.8563C6.50835 87.425 8.03417 87.6029 9.84573 87.3903C10.8522 87.2721 11.6514 87.1273 12.2434 86.9557C12.8325 86.759 13.4423 86.5217 14.0729 86.2436C14.5806 86.0054 15.0313 85.825 15.425 85.7022C15.8187 85.5795 16.33 85.4812 16.959 85.4073C17.6635 85.3246 18.1098 85.3233 18.2977 85.4032C18.5108 85.4802 18.638 85.6949 18.6794 86.0471C18.7089 86.2987 18.23 86.6738 17.2428 87.1723C16.2555 87.6708 15.138 88.1464 13.8902 88.5989C12.6425 89.0515 11.7796 89.3058 11.3016 89.362Z" fill="#05273C"/>
<path d="M28.4329 87.3125C27.2504 87.4514 26.1715 87.1699 25.1964 86.4681C24.2464 85.7634 23.4697 84.7961 22.8661 83.566C22.2878 82.3331 21.9173 81.0247 21.7549 79.6408C21.4713 77.2254 21.7353 75.1283 22.5467 73.3496C23.3834 71.5679 24.8459 70.5545 26.9342 70.3093C28.1922 70.1616 29.3133 70.2596 30.2974 70.6032C31.3037 70.9186 32.6348 71.5021 34.2907 72.3535L35.3517 72.9176C35.1284 72.1021 34.8275 71.1682 34.4489 70.1158C34.0703 69.0634 33.8196 68.3404 33.6968 67.9467C33.0387 66.0344 32.5529 64.612 32.2394 63.6795C31.948 62.7189 31.7581 61.8612 31.6695 61.1064C31.5129 59.7729 31.812 59.0618 32.5669 58.9732C32.9145 59.5446 33.3937 60.802 34.0045 62.7453C34.6123 64.6636 35.4064 67.2996 36.3868 70.6535C37.416 74.2057 38.2914 77.1001 39.0131 79.3365C39.7348 81.573 40.2806 82.9628 40.6504 83.506C40.7184 84.0847 40.3246 84.4243 39.4692 84.5247C38.815 84.6015 38.3178 84.2773 37.9776 83.552C37.6625 82.8238 37.369 81.5191 37.0972 79.638L36.7953 79.6734C35.963 81.7097 34.7764 83.4432 33.2354 84.8739C31.6943 86.3047 30.0935 87.1176 28.4329 87.3125ZM28.7065 85.4056C29.738 85.2845 30.7949 84.7268 31.877 83.7325C32.9813 82.7101 33.8763 81.5338 34.5618 80.2034C35.2444 78.8479 35.5267 77.667 35.4085 76.6605L35.2756 75.5283C32.3651 73.1152 29.8153 72.0372 27.6263 72.2941C26.0915 72.4743 24.9755 73.1793 24.2781 74.409C23.5777 75.6135 23.3339 77.1215 23.5466 78.9331L23.6774 79.7212C24.0528 81.6157 24.6578 83.0751 25.4922 84.0995C26.3267 85.1238 27.3981 85.5592 28.7065 85.4056Z" fill="#05273C"/>
<path d="M49.6253 84.8246C48.4427 84.9634 47.3639 84.682 46.3888 83.9802C45.4388 83.2755 44.662 82.3081 44.0585 81.0781C43.4801 79.8451 43.1097 78.5367 42.9472 77.1529C42.6637 74.7375 42.9276 72.6404 43.7391 70.8617C44.5757 69.08 46.0382 68.0665 48.1265 67.8214C49.3846 67.6737 50.5056 67.7716 51.4897 68.1152C52.4961 68.4307 53.8272 69.0142 55.4831 69.8656L56.5441 70.4297C56.3208 69.6142 56.0198 68.6802 55.6412 67.6279C55.2626 66.5755 55.0119 65.8525 54.8892 65.4588C54.2311 63.5464 53.7452 62.1241 53.4317 61.1916C53.1404 60.231 52.9504 59.3733 52.8618 58.6185C52.7053 57.285 53.0044 56.5739 53.7592 56.4853C54.1069 57.0567 54.5861 58.314 55.1968 60.2574C55.8046 62.1756 56.5987 64.8117 57.5791 68.1656C58.6083 71.7178 59.4838 74.6121 60.2055 76.8486C60.9272 79.085 61.4729 80.4749 61.8428 81.0181C61.9107 81.5968 61.517 81.9364 60.6615 82.0368C60.0073 82.1136 59.5101 81.7894 59.1699 81.0641C58.8549 80.3358 58.5614 79.0312 58.2895 77.15L57.9876 77.1855C57.1554 79.2217 55.9687 80.9552 54.4277 82.386C52.8867 83.8168 51.2859 84.6296 49.6253 84.8246ZM49.8988 82.9177C50.9304 82.7966 51.9872 82.2389 53.0694 81.2446C54.1737 80.2222 55.0686 79.0458 55.7542 77.7155C56.4368 76.36 56.719 75.179 56.6009 74.1726L56.4679 73.0404C53.5574 70.6273 51.0077 69.5492 48.8187 69.8062C47.2839 69.9864 46.1678 70.6913 45.4704 71.921C44.7701 73.1256 44.5263 74.6336 44.7389 76.4452L44.8697 77.2333C45.2452 79.1278 45.8501 80.5872 46.6846 81.6116C47.5191 82.6359 48.5905 83.0713 49.8988 82.9177Z" fill="#05273C"/>
<path d="M73.2752 82.0864C71.6649 82.2755 70.1435 82.1352 68.711 81.6657C67.2785 81.1962 66.0918 80.43 65.1507 79.3672C64.2097 78.3043 63.6506 77.018 63.4734 75.5084C63.2755 73.8227 63.4054 72.2132 63.8631 70.68C64.3178 69.1217 65.0973 67.8314 66.2017 66.809C67.3282 65.7584 68.7092 65.1372 70.3446 64.9452C72.0555 64.7443 73.4163 65.1458 74.4269 66.1494C75.4345 67.128 76.0106 68.4505 76.1553 70.117C76.3295 71.6014 75.8712 72.8031 74.7802 73.7219C73.7144 74.6377 72.2757 75.202 70.4641 75.4147C70.1874 75.4472 69.7693 75.4707 69.2098 75.4854C68.2922 75.4911 67.6344 75.428 67.2363 75.2962C66.8382 75.1644 66.6082 74.8343 66.5461 74.3059C66.5255 74.1298 66.561 73.9981 66.6528 73.9108C66.7416 73.7983 66.937 73.7244 67.2389 73.6889C67.566 73.6506 68.1536 73.6581 69.0016 73.7116C69.8244 73.768 70.5504 73.7593 71.1794 73.6855C73.4942 73.4137 74.5334 72.2714 74.2971 70.2586C74.1553 69.0509 73.8166 68.1214 73.281 67.47C72.7706 66.8158 71.9618 66.5536 70.8548 66.6836C69.6471 66.8254 68.6036 67.2794 67.7243 68.0459C66.842 68.7871 66.1973 69.7046 65.79 70.7982C65.4079 71.8888 65.2848 73.0129 65.4206 74.1702C65.654 76.1579 66.3995 77.7284 67.6572 78.8816C68.912 80.0097 70.6967 80.4378 73.0115 80.1661C73.2883 80.1336 73.7508 80.0538 74.3991 79.9266C74.6729 79.869 75.0037 79.7536 75.3915 79.5806C75.7793 79.4075 76.0583 79.2855 76.2285 79.2145C77.2661 78.7101 78.0365 78.4283 78.5397 78.3692C78.9171 78.3249 79.2183 78.3916 79.4432 78.5693C78.9264 79.5992 78.0656 80.4145 76.8608 81.015C75.6781 81.5875 74.4829 81.9446 73.2752 82.0864Z" fill="#05273C"/>
<path d="M87.7347 80.3507C86.5521 80.4895 85.4733 80.208 84.4981 79.5063C83.5482 78.8016 82.7714 77.8342 82.1679 76.6042C81.5895 75.3712 81.2191 74.0628 81.0566 72.679C80.773 70.2636 81.037 68.1665 81.8485 66.3877C82.6851 64.606 84.1476 63.5926 86.2359 63.3474C87.4939 63.1997 88.615 63.2977 89.5991 63.6413C90.6054 63.9568 91.9365 64.5402 93.5924 65.3916L94.6535 65.9558C94.4302 65.1402 94.1292 64.2063 93.7506 63.1539C93.372 62.1016 93.1213 61.3785 92.9986 60.9848C92.3404 59.0725 91.8546 57.6501 91.5411 56.7176C91.2498 55.7571 91.0598 54.8994 90.9712 54.1445C90.8146 52.811 91.1138 52.1 91.8686 52.0114C92.2162 52.5827 92.6954 53.8401 93.3062 55.7835C93.914 57.7017 94.7081 60.3377 95.6885 63.6916C96.7177 67.2439 97.5932 70.1382 98.3148 72.3746C99.0365 74.6111 99.5823 76.0009 99.9522 76.5442C100.02 77.1229 99.6263 77.4624 98.7709 77.5629C98.1167 77.6396 97.6195 77.3154 97.2793 76.5901C96.9642 75.8619 96.6708 74.5572 96.3989 72.6761L96.097 72.7115C95.2647 74.7478 94.0781 76.4813 92.5371 77.9121C90.9961 79.3428 89.3953 80.1557 87.7347 80.3507ZM88.0082 78.4438C89.0398 78.3227 90.0966 77.765 91.1787 76.7707C92.2831 75.7483 93.178 74.5719 93.8636 73.2416C94.5462 71.8861 94.8284 70.7051 94.7103 69.6987L94.5773 68.5664C91.6668 66.1533 89.117 65.0753 86.9281 65.3323C85.3933 65.5124 84.2772 66.2174 83.5798 67.4471C82.8795 68.6516 82.6356 70.1597 82.8483 71.9712L82.9791 72.7594C83.3545 74.6538 83.9595 76.1133 84.794 77.1376C85.6284 78.162 86.6998 78.5974 88.0082 78.4438Z" fill="#05273C"/>
<path d="M118.362 76.7551C117.18 76.8939 116.101 76.6124 115.126 75.9107C114.176 75.206 113.399 74.2386 112.795 73.0086C112.217 71.7756 111.847 70.4672 111.684 69.0834C111.401 66.668 111.665 64.5709 112.476 62.7921C113.313 61.0104 114.775 59.997 116.863 59.7518C118.121 59.6041 119.243 59.7021 120.227 60.0457C121.233 60.3612 122.564 60.9446 124.22 61.796L125.281 62.3602C125.058 61.5446 124.757 60.6107 124.378 59.5583C124 58.506 123.749 57.7829 123.626 57.3892C122.968 55.4769 122.482 54.0545 122.169 53.122C121.877 52.1615 121.687 51.3038 121.599 50.5489C121.442 49.2154 121.741 48.5044 122.496 48.4158C122.844 48.9871 123.323 50.2445 123.934 52.1879C124.542 54.1061 125.336 56.7421 126.316 60.096C127.345 63.6483 128.221 66.5426 128.942 68.779C129.664 71.0155 130.21 72.4053 130.58 72.9486C130.648 73.5273 130.254 73.8668 129.398 73.9673C128.744 74.0441 128.247 73.7198 127.907 72.9945C127.592 72.2663 127.298 70.9616 127.026 69.0805L126.725 69.1159C125.892 71.1522 124.706 72.8857 123.165 74.3165C121.624 75.7472 120.023 76.5601 118.362 76.7551ZM118.636 74.8482C119.667 74.727 120.724 74.1694 121.806 73.1751C122.911 72.1527 123.806 70.9763 124.491 69.646C125.174 68.2905 125.456 67.1095 125.338 66.1031L125.205 64.9708C122.294 62.5577 119.745 61.4797 117.556 61.7367C116.021 61.9168 114.905 62.6218 114.207 63.8515C113.507 65.056 113.263 66.5641 113.476 68.3756L113.607 69.1638C113.982 71.0582 114.587 72.5177 115.422 73.542C116.256 74.5664 117.327 75.0017 118.636 74.8482Z" fill="#05273C"/>
<path d="M142.805 73.9238C140.188 74.231 137.858 74.0454 135.814 73.3671C133.793 72.6607 132.646 71.1501 132.374 68.8353C132.277 68.005 132.434 67.1703 132.846 66.3313C133.257 65.4922 133.926 64.776 134.851 64.1828C135.773 63.5644 136.938 63.1725 138.347 63.0071C139.429 62.8801 140.354 62.8226 141.12 62.8346C141.887 62.8466 142.787 63.0215 143.822 63.3592C144.856 63.6969 145.959 64.2943 147.131 65.1515C146.525 63.4627 145.742 62.0114 144.784 60.7976C143.825 59.5837 142.801 58.6836 141.712 58.0973C140.645 57.4828 139.633 57.2317 138.677 57.344C138.225 57.3971 137.807 57.5354 137.425 57.7588C137.066 57.9541 136.627 58.2352 136.109 58.6021C135.527 59.0785 135.085 59.3344 134.783 59.3699C134.657 59.3846 134.54 59.3602 134.43 59.2965C134.343 59.2047 134.292 59.0959 134.277 58.9701C134.159 57.9637 134.508 57.132 135.323 56.4751C136.164 55.8153 137.229 55.4352 138.518 55.3349C140.291 55.2287 141.99 55.7945 143.615 57.0322C145.236 58.2447 146.584 59.8338 147.656 61.7995C148.754 63.7622 149.419 65.7374 149.653 67.7251C149.691 68.0522 149.721 68.5206 149.741 69.1304L148.525 69.1967C147.341 67.3716 145.947 66.145 144.343 65.5171C142.761 64.8611 141.215 64.6217 139.706 64.7989C137.768 65.0264 136.418 65.4782 135.656 66.1543C134.894 66.8305 134.577 67.7221 134.707 68.8292C134.843 69.9866 135.531 70.8496 136.771 71.4182C138.011 71.9868 139.537 72.1648 141.349 71.9521C142.355 71.834 143.155 71.6891 143.747 71.5176C144.336 71.3209 144.945 71.0835 145.576 70.8054C146.084 70.5673 146.534 70.3868 146.928 70.2641C147.322 70.1413 147.833 70.0431 148.462 69.9692C149.167 69.8865 149.613 69.8851 149.801 69.9651C150.014 70.0421 150.141 70.2567 150.183 70.609C150.212 70.8606 149.733 71.2357 148.746 71.7342C147.759 72.2327 146.641 72.7082 145.393 73.1608C144.146 73.6134 143.283 73.8677 142.805 73.9238Z" fill="#05273C"/>
<path d="M156.02 72.4107C155.441 72.4786 154.877 71.6904 154.327 70.046C153.774 68.3764 153.374 66.9311 153.129 65.71C152.884 64.489 152.516 62.5553 152.027 59.9089C151.952 59.4842 151.874 58.9321 151.794 58.2528C151.694 57.3973 151.687 56.7987 151.775 56.4568C151.887 56.112 152.107 55.9204 152.434 55.882C152.711 55.8495 152.932 55.8873 153.098 55.9954C153.286 56.0753 153.458 56.2337 153.613 56.4706L153.752 57.9846C153.941 59.5949 154.196 61.1083 154.515 62.5247C154.859 63.9382 155.35 65.8319 155.985 68.206C156.311 69.2391 156.551 70.0909 156.706 70.7614C156.798 71.1077 156.776 71.4674 156.642 71.8403C156.504 72.188 156.297 72.3782 156.02 72.4107ZM152.639 51.764C152.086 51.829 151.646 51.6638 151.319 51.2686C151.017 50.8704 150.829 50.3568 150.755 49.7278C150.723 49.451 150.712 49.2483 150.722 49.1195C150.65 48.7199 150.852 48.492 151.331 48.4359C151.683 48.3945 152.045 48.4413 152.418 48.576C152.813 48.6827 152.94 48.7826 152.798 48.8758C153.126 49.5005 153.313 50.0015 153.357 50.3789C153.395 50.706 153.351 50.979 153.223 51.198C153.093 51.3919 152.899 51.5805 152.639 51.764Z" fill="#05273C"/>
<path d="M162.313 71.3658C161.438 68.6882 160.629 65.4928 159.887 61.7793C159.167 58.0377 158.6 54.4057 158.187 50.8832C157.98 49.1219 157.835 47.5576 157.751 46.19C157.712 45.8629 157.945 45.6699 158.448 45.6108C158.85 45.5635 159.114 45.6346 159.238 45.8241C159.388 46.0106 159.487 46.3177 159.538 46.7455C160.016 50.8215 160.501 54.2973 160.991 57.1731C161.479 60.0237 162.044 63.0948 162.685 66.3864C163.087 68.5074 163.358 69.9423 163.497 70.6912C163.569 71.0908 163.379 71.3172 162.926 71.3704C162.775 71.3881 162.571 71.3865 162.313 71.3658Z" fill="#05273C"/>
<path d="M179.044 87.7668C177.333 87.9677 175.756 87.783 174.311 87.2129C172.892 86.6398 171.724 85.9224 170.807 85.0609C169.889 84.1993 169.345 83.4725 169.173 82.8804C169.008 82.3387 169.083 81.8962 169.4 81.5529C169.742 81.2067 170.193 81.0263 170.752 81.0116C171.751 82.7819 172.85 84.1068 174.05 84.9862C175.25 85.8656 176.86 86.2123 178.878 86.0263C180.29 85.8861 181.304 84.8488 181.918 82.9146C182.561 81.0027 182.903 78.7051 182.946 76.0219C182.991 73.3638 182.864 70.7642 182.566 68.223C182.412 66.9146 182.249 65.8497 182.076 65.0283C180.438 67.5927 178.135 69.0492 175.166 69.3977C172.6 69.699 170.481 68.7106 168.811 66.4325C167.166 64.1514 165.962 61.4997 165.199 58.4774C165.113 58.1814 165.038 57.7566 164.973 57.2031C164.787 55.6179 165.209 54.7648 166.241 54.6437C166.342 54.6319 166.554 55.2447 166.878 56.482C167.388 58.4372 167.937 60.1837 168.526 61.7216C169.114 63.2595 169.951 64.6279 171.036 65.827C172.142 66.9979 173.476 67.4918 175.036 67.3087C176.269 67.1639 177.479 66.6137 178.668 65.6579C179.879 64.674 180.715 63.6449 181.175 62.5705C180.951 60.6583 180.498 58.977 179.818 57.5264C179.159 56.0477 178.812 55.2595 178.775 55.1619C178.66 54.6142 178.593 54.2649 178.575 54.114C178.516 53.6108 178.549 53.2371 178.673 52.9929C178.823 52.7458 179.061 52.603 179.388 52.5646C179.74 52.5233 180.227 53.1931 180.848 54.5741C181.47 55.9551 182.092 57.7823 182.716 60.0557C183.34 62.3291 183.863 64.7164 184.284 67.2177C184.488 68.5202 184.627 69.4859 184.701 70.1149C185.268 74.9457 185.134 79.0171 184.298 82.3292C183.488 85.6382 181.737 87.4508 179.044 87.7668Z" fill="#05273C"/>
<path fill-rule="evenodd" clip-rule="evenodd" d="M93.8752 144.773C93.326 145.889 92.8376 147.052 92.412 148.25C89.2476 157.186 89.608 168.16 95.6705 178.372C97.6056 181.633 99.8655 184.613 102.507 187.224C105.133 189.82 108.122 192.043 111.359 193.987C111.626 194.157 111.979 194.078 112.15 193.812C112.32 193.545 112.241 193.192 111.976 193.022C108.938 190.97 106.215 188.607 103.741 186.012C101.277 183.428 99.0617 180.608 97.2199 177.46C91.5416 167.752 91.2541 157.366 94.2917 148.92C94.6014 148.06 94.9443 147.22 95.323 146.405C96.4894 147.639 97.7417 148.766 99.0572 149.77C107.324 156.085 118.037 157.549 126.028 150.196C130.96 145.724 131.077 140.379 128.52 136.241C126.09 132.305 121.142 129.476 115.587 129.52C106.944 129.589 99.2086 135.085 94.6713 143.242C90.6596 138.18 88.0976 131.668 88.2539 124.715C88.3762 119.343 90.2395 114.652 92.9834 110.803C95.0769 107.867 97.7537 105.515 100.51 103.558C101.787 102.65 103.022 101.77 104.339 101.072C104.447 101.026 104.499 100.901 104.454 100.793C104.409 100.684 104.284 100.632 104.174 100.677C102.703 101.127 101.221 101.661 99.808 102.447C96.6976 104.179 93.9217 106.793 91.6734 109.854C88.6937 113.913 86.7721 118.957 86.646 124.679C86.4789 132.275 89.3901 139.356 93.8752 144.773ZM96.0735 144.887C97.2942 146.225 98.6202 147.437 100.023 148.5C107.637 154.272 117.505 155.672 124.789 148.863C128.756 145.099 128.837 140.756 126.703 137.377C124.585 134.021 120.367 131.595 115.6 131.618C107.436 131.655 100.215 137.046 96.0735 144.887Z" fill="#05273C"/>
<path fill-rule="evenodd" clip-rule="evenodd" d="M111.701 193.784C109.82 193.204 106.986 192.32 106.683 192.224L101.26 190.624L92.2956 188.509C92.0967 188.451 91.8882 188.566 91.8308 188.766C91.7725 188.965 91.8881 189.174 92.0881 189.23L106.021 194.244C106.387 194.366 110.423 195.7 112.055 196.204C113.04 196.509 113.726 196.216 113.744 196.202C114.02 195.977 114.32 195.501 114.173 194.772C113.984 193.829 112.727 191.625 112.612 191.391L107.188 180.165C105.287 176.326 104.964 174.929 103.988 175.336C103.782 175.408 103.658 175.589 103.6 176.181C103.582 176.361 103.674 176.563 103.745 176.788C104.202 178.242 105.472 180.545 105.605 180.872L110.69 192.311C110.739 192.41 111.28 193.103 111.701 193.784Z" fill="#05273C"/>
</svg>
